<svg width="87" height="113" viewBox="0 0 87 113" fill="none" xmlns="http://www.w3.org/2000/svg">
<mask id="mask0_1_401" style="mask-type:luminance" maskUnits="userSpaceOnUse" x="38" y="3" width="27" height="93">
<path d="M38.28 3.616H64.67V95.5227H38.28V3.616Z" fill="white"/>
</mask>
<g mask="url(#mask0_1_401)">
<mask id="mask1_1_401" style="mask-type:luminance" maskUnits="userSpaceOnUse" x="-20" y="-3" width="113" height="128">
<path d="M92.2676 89.4972L23.5693 124.099L-19.1218 32.5829L49.5753 -2.01752L92.2676 89.4972Z" fill="white"/>
</mask>
<g mask="url(#mask1_1_401)">
<mask id="mask2_1_401" style="mask-type:luminance" maskUnits="userSpaceOnUse" x="-20" y="-3" width="113" height="128">
<path d="M92.2676 89.4972L23.5693 124.099L-19.1218 32.5829L49.5753 -2.01752L92.2676 89.4972Z" fill="white"/>
</mask>
<g mask="url(#mask2_1_401)">
<path d="M38.7411 5.11208C47.2078 7.91471 54.4023 13.4199 58.7443 21.5595C62.7941 29.1493 63.7706 38.114 62.7964 46.6278C62.2085 51.774 60.7109 56.1763 58.7149 60.847C56.3779 66.3145 53.8449 71.6962 51.1715 76.993C50.434 78.455 41.8722 95.631 39.8343 94.1596C39.1931 93.697 38.518 94.7411 39.1603 95.2049C41.2333 96.7009 43.9713 92.0173 44.8289 90.7461C47.9566 86.1095 50.5201 81.0363 53.0191 76.0137C57.7112 66.5805 62.8417 56.8873 64.064 46.2029C65.0643 37.4501 63.7412 28.3336 59.6053 20.5837C55.2134 12.3523 47.6666 6.74822 39.1376 3.9244C38.3956 3.67839 37.9969 4.86607 38.7411 5.11208Z" fill="#6437FF"/>
</g>
</g>
</g>
<mask id="mask3_1_401" style="mask-type:luminance" maskUnits="userSpaceOnUse" x="17" y="77" width="37" height="35">
<path d="M17.4 77.1413H53.07V111.493H17.4V77.1413Z" fill="white"/>
</mask>
<g mask="url(#mask3_1_401)">
<mask id="mask4_1_401" style="mask-type:luminance" maskUnits="userSpaceOnUse" x="-20" y="-3" width="113" height="128">
<path d="M92.2676 89.4972L23.5693 124.099L-19.1218 32.5829L49.5753 -2.01752L92.2676 89.4972Z" fill="white"/>
</mask>
<g mask="url(#mask4_1_401)">
<mask id="mask5_1_401" style="mask-type:luminance" maskUnits="userSpaceOnUse" x="-20" y="-3" width="113" height="128">
<path d="M92.2676 89.4972L23.5693 124.099L-19.1218 32.5829L49.5753 -2.01752L92.2676 89.4972Z" fill="white"/>
</mask>
<g mask="url(#mask5_1_401)">
<path d="M40.3202 95.2202C45.2264 98.609 49.5878 103.082 51.7798 108.861C52.0278 108.571 52.2748 108.282 52.5229 107.993C41.2786 102.862 29.3172 107.572 18.0854 110.184C18.2553 110.548 18.4241 110.912 18.594 111.276C27.0085 102.143 30.8012 90.0975 34.0025 78.1784C33.6604 78.2478 33.3183 78.3173 32.9762 78.3867C36.6703 83.487 40.5026 89.3359 42.1406 95.5615C42.3446 96.3384 43.5363 96.1148 43.3312 95.3332C41.6298 88.8698 37.7272 82.8584 33.8858 77.5569C33.6185 77.1873 32.9773 77.3262 32.8595 77.7652C29.7205 89.4489 26.049 101.372 17.7954 110.33C17.4091 110.749 17.6753 111.568 18.304 111.422C29.3217 108.86 41.0928 104.146 52.1264 109.18C52.652 109.421 53.044 108.775 52.8684 108.313C50.6039 102.34 46.0647 97.6767 40.9942 94.1749C40.3451 93.7265 39.6689 94.7694 40.3202 95.2202Z" fill="#6437FF"/>
</g>
</g>
</g>
<mask id="mask6_1_401" style="mask-type:luminance" maskUnits="userSpaceOnUse" x="21" y="83" width="22" height="27">
<path d="M21.46 83.4693H42.34V109.083H21.46V83.4693Z" fill="white"/>
</mask>
<g mask="url(#mask6_1_401)">
<mask id="mask7_1_401" style="mask-type:luminance" maskUnits="userSpaceOnUse" x="-20" y="-3" width="113" height="128">
<path d="M92.2676 89.4972L23.5693 124.099L-19.1219 32.5829L49.5753 -2.01752L92.2676 89.4972Z" fill="white"/>
</mask>
<g mask="url(#mask7_1_401)">
<mask id="mask8_1_401" style="mask-type:luminance" maskUnits="userSpaceOnUse" x="-20" y="-3" width="113" height="128">
<path d="M92.2676 89.4972L23.5693 124.099L-19.1219 32.5829L49.5753 -2.01752L92.2676 89.4972Z" fill="white"/>
</mask>
<g mask="url(#mask8_1_401)">
<path d="M32.9557 91.9867C34.0738 93.7818 32.3973 97.3071 31.7584 99.0316C30.749 101.758 29.5109 104.404 28.173 106.97C28.531 107.156 28.8889 107.341 29.248 107.527C32.003 101.747 34.9234 96.0429 35.9849 89.6161C36.1095 88.8627 35.0741 88.7568 34.8102 89.3618C33.3783 92.6376 32.8798 96.2066 32.1356 99.6931C32.5275 99.7778 32.9195 99.8626 33.3114 99.9473C33.6581 95.2684 34.7648 90.6907 34.8679 85.9859C34.8849 85.2326 33.9889 85.1055 33.6932 85.7317C31.4061 90.5648 31.7255 95.997 30.4953 101.119C30.8861 101.203 31.278 101.288 31.67 101.373C31.5794 95.545 33.8473 90.008 34.6561 84.2957C34.7614 83.5576 33.7295 83.4081 33.4814 84.0414C31.3845 89.383 31.2055 95.2767 29.1087 100.618C29.5007 100.704 29.8926 100.789 30.2846 100.874C30.8521 97.1741 32.344 93.6252 33.1676 89.9798C33.3477 89.1782 32.3689 88.8439 32.0234 89.5666C29.7193 94.3833 29.2764 99.8732 26.9722 104.69C27.354 104.828 27.7346 104.965 28.1164 105.102C29.6105 101.886 31.3472 98.7644 32.1764 95.2708C32.3599 94.4963 31.3018 94.0819 31.0334 94.8576C29.5313 99.2022 27.1841 103.129 24.693 106.926C25.0623 107.059 25.4305 107.192 25.7998 107.325C25.9346 103.699 27.6995 100.617 29.7589 97.7956C29.401 97.6096 29.043 97.4237 28.685 97.2389C27.3019 101.153 24.7247 104.492 22.1329 107.617C22.4682 107.85 22.8035 108.083 23.1388 108.318C24.6738 105.899 26.3277 103.565 27.8638 101.146C28.233 100.562 27.4616 99.812 26.9609 100.323C24.7474 102.582 22.6947 104.929 21.597 107.996C21.4124 108.511 21.9652 109.009 22.433 108.767C26.7275 106.552 30.5904 103.562 34.2653 100.386C33.9651 100.112 33.6649 99.8379 33.3636 99.5636C32.6397 100.426 31.7391 101.081 31.0152 101.945C31.3505 102.178 31.6859 102.411 32.0212 102.645C34.6323 99.4235 36.3882 95.6027 38.6413 92.1221C38.2732 91.9891 37.9039 91.8561 37.5346 91.723C37.4677 94.3997 36.8254 96.8269 35.4559 99.1081C35.815 99.294 36.1729 99.4788 36.5309 99.6648C37.1528 96.8857 39.0038 94.7093 40.4935 92.3869C40.1276 92.3081 39.7617 92.2304 39.3958 92.1515C39.4581 92.9578 39.5997 93.7735 39.5793 94.5834C39.5521 95.6898 38.7693 96.7822 38.2573 97.6979C37.9277 98.2865 38.6447 99.0433 39.159 98.5207C40.3655 97.293 41.513 96.0806 42.161 94.4327C41.7792 94.2962 41.3986 94.1584 41.0168 94.0207C40.1095 96.4738 38.3729 98.084 36.4788 99.7202C36.813 99.8944 37.1472 100.069 37.4813 100.242C37.794 95.764 38.4533 91.284 37.6297 86.8228C37.5029 86.1319 36.4539 86.1625 36.4312 86.8876C36.3836 88.3919 36.1525 89.8656 35.713 91.3017C36.105 91.3864 36.4958 91.4712 36.8889 91.5559C36.8764 89.2041 36.4935 86.93 36.0325 84.6335C35.8705 83.8307 34.7569 84.0626 34.8419 84.8607C35.1557 87.8151 36.6918 90.1246 38.3763 92.4375C38.7388 92.9354 39.5566 92.4999 39.4264 91.9078C38.9041 89.5443 37.9129 87.3808 36.9002 85.2079C36.5672 85.4374 36.2341 85.667 35.9011 85.8965C36.9761 87.4126 37.8789 89.0723 38.1032 90.9674C38.4102 93.5581 35.9872 94.3656 33.9696 94.4668C33.6014 94.4857 33.2299 94.7729 33.3273 95.2072C33.9979 98.2088 30.5315 101.42 28.2263 102.655C27.533 103.025 28.0597 104.158 28.7541 103.786C31.5375 102.296 35.3245 98.5902 34.5179 94.9789C34.3038 95.226 34.0897 95.4732 33.8756 95.7204C36.1412 95.6074 38.5632 94.9483 39.2066 92.394C39.8546 89.8232 38.2041 87.0312 36.8107 85.0666C36.3972 84.484 35.5204 85.1326 35.8104 85.7564C36.7756 87.8269 37.7373 89.8821 38.2347 92.1362C38.5847 91.9596 38.9347 91.7831 39.2848 91.6077C37.7204 89.4583 36.3247 87.3784 36.0313 84.6335C35.6348 84.7088 35.2384 84.7853 34.8407 84.8607C35.2803 87.0488 35.6688 89.2147 35.6802 91.4594C35.6847 92.1421 36.6363 92.4317 36.856 91.7136C37.3261 90.1799 37.5867 88.5944 37.6377 86.9853C37.2378 87.0077 36.839 87.0288 36.4391 87.0512C37.2412 91.4029 36.5785 95.7769 36.2738 100.145C36.2341 100.705 36.8707 101.017 37.2774 100.667C39.3448 98.8797 41.1743 97.0964 42.1598 94.4327C42.4408 93.6723 41.3091 93.2744 41.0157 94.0207C40.4527 95.4568 39.4071 96.5091 38.3593 97.5755C38.6595 97.8498 38.9608 98.124 39.261 98.3983C39.8172 97.4037 40.5218 96.3207 40.72 95.1648C40.9036 94.0996 40.6668 92.9884 40.5852 91.9232C40.5411 91.3511 39.7594 91.2616 39.4864 91.6866C37.9401 94.0984 36.0325 96.3666 35.3868 99.2517C35.2395 99.9061 36.071 100.457 36.4607 99.8084C37.9333 97.3542 38.6685 94.7081 38.7399 91.8207C38.7557 91.2051 37.9854 90.8791 37.6343 91.4217C35.3811 94.9012 33.6264 98.7232 31.013 101.944C30.5077 102.568 31.5148 103.246 32.0189 102.644C32.7416 101.782 33.6434 101.127 34.3672 100.264C34.8317 99.7096 33.973 99.0021 33.4655 99.4412C29.87 102.548 26.1034 105.468 21.9029 107.636C22.1816 107.893 22.4602 108.15 22.7378 108.407C23.7618 105.546 25.6933 103.375 27.7573 101.268C27.4571 100.994 27.1557 100.719 26.8555 100.444C25.3195 102.863 23.6655 105.197 22.1306 107.616C21.6899 108.312 22.6404 108.916 23.1365 108.316C25.7998 105.104 28.4052 101.672 29.8258 97.6497C30.0716 96.954 29.1552 96.5397 28.7507 97.0941C26.5701 100.082 24.7327 103.394 24.5899 107.226C24.5661 107.849 25.3455 108.16 25.6967 107.625C28.2444 103.741 30.638 99.7131 32.1741 95.2696C31.7923 95.1319 31.4117 94.9942 31.03 94.8576C30.2007 98.3512 28.4641 101.472 26.97 104.689C26.629 105.422 27.772 105.815 28.113 105.101C30.4171 100.285 30.86 94.7952 33.1642 89.9786C32.7836 89.8409 32.4018 89.7032 32.0212 89.5666C31.1727 93.3203 29.6593 96.9646 29.0747 100.775C28.9603 101.514 30.0014 101.661 30.2495 101.03C32.3463 95.6875 32.5253 89.7938 34.6221 84.4522C34.2302 84.3675 33.8382 84.2827 33.4463 84.198C32.6374 89.9068 30.3695 95.4426 30.4602 101.275C30.4704 101.939 31.457 102.271 31.636 101.529C32.864 96.4161 32.5536 90.9627 34.8339 86.1425C34.442 86.0577 34.05 85.973 33.6581 85.8882C33.555 90.5919 32.4482 95.1695 32.1016 99.8496C32.0495 100.543 33.1245 100.816 33.2763 100.104C34.0217 96.6174 34.519 93.0496 35.9509 89.7726C35.5589 89.6879 35.167 89.6031 34.775 89.5172C33.734 95.8217 30.8023 101.447 28.1016 107.113C27.7969 107.751 28.8493 108.295 29.1755 107.67C30.7037 104.739 32.0869 101.716 33.2095 98.5925C33.8824 96.7209 35.2463 93.3686 34.0421 91.4382C33.6264 90.7673 32.5321 91.3075 32.9557 91.9867Z" fill="#6437FF"/>
</g>
</g>
</g>
<mask id="mask9_1_401" style="mask-type:luminance" maskUnits="userSpaceOnUse" x="25" y="79" width="30" height="30">
<path d="M25.52 79.2507H54.23V108.781H25.52V79.2507Z" fill="white"/>
</mask>
<g mask="url(#mask9_1_401)">
<mask id="mask10_1_401" style="mask-type:luminance" maskUnits="userSpaceOnUse" x="-20" y="-3" width="113" height="128">
<path d="M92.2676 89.4972L23.5693 124.099L-19.1218 32.5829L49.5753 -2.01752L92.2676 89.4972Z" fill="white"/>
</mask>
<g mask="url(#mask10_1_401)">
<mask id="mask11_1_401" style="mask-type:luminance" maskUnits="userSpaceOnUse" x="-20" y="-3" width="113" height="128">
<path d="M92.2676 89.4972L23.5693 124.099L-19.1218 32.5829L49.5753 -2.01752L92.2676 89.4972Z" fill="white"/>
</mask>
<g mask="url(#mask11_1_401)">
<path d="M35.8161 102.003C38.7388 101.752 41.4677 100.94 44.1174 99.6425C43.8478 99.5459 43.5782 99.4482 43.3086 99.3517C43.3833 99.513 43.4592 99.6742 43.5351 99.8367C43.5827 99.5871 43.6314 99.3388 43.6801 99.0892C42.016 100.925 39.8999 102.842 37.3511 102.947C37.4678 103.313 37.5856 103.68 37.7034 104.046C40.2398 101.72 43.7164 102.556 46.6243 103.566C46.7568 103.17 46.8894 102.773 47.0219 102.378C45.9559 102.12 44.7982 102.217 43.773 102.611C43.9486 102.989 44.1242 103.366 44.3009 103.742C46.9687 102.492 49.9684 102.451 52.5104 104.053C52.5353 103.69 52.5602 103.328 52.584 102.965C49.8528 104.234 46.9755 104.022 44.0687 103.755C44.1412 104.153 44.2137 104.551 44.2862 104.948C46.2697 103.951 47.9803 103.324 50.1859 103.15C50.0612 102.755 49.9366 102.36 49.812 101.965C47.1046 103.294 44.4901 103.871 41.5232 103.241C41.6411 103.607 41.7577 103.974 41.8755 104.34C44.2873 102.656 46.6118 102.868 49.1697 104.08C49.1482 103.694 49.1267 103.307 49.104 102.921C43.3459 105.092 36.7949 105.09 30.8442 103.827C30.8646 104.242 30.8861 104.658 30.9077 105.074C33.9708 104.135 37.0192 103.175 39.9158 101.759C40.5196 101.463 40.2058 100.363 39.542 100.574C36.7099 101.475 34.0093 102.782 31.1546 103.601C31.3234 103.965 31.4933 104.328 31.6632 104.692C34.6641 101.515 38.5156 99.52 42.8713 100.174C42.7546 99.8072 42.6368 99.4412 42.519 99.0739C38.0942 103.652 31.8739 105.683 26.0048 107.391C26.1295 107.787 26.2541 108.181 26.3787 108.577C29.4225 106.482 32.685 104.763 35.7289 102.669C36.3576 102.237 35.926 101.173 35.201 101.538C34.7343 101.773 34.2676 102.007 33.8009 102.243C33.0883 102.602 33.6105 103.659 34.3287 103.374C39.8852 101.174 48.5637 98.6514 53.0859 104.195C53.2535 103.848 53.42 103.501 53.5877 103.154C48.6905 102.663 43.9894 98.1746 40.7688 94.6705C37.8212 91.4641 32.9093 85.2432 35.5318 80.5113C35.1648 80.4325 34.7989 80.3536 34.433 80.2747C35.5261 84.4004 33.2299 88.7509 32.8821 92.8683C32.8414 93.3451 33.3398 93.6899 33.7487 93.4828C34.3718 93.1697 34.9937 92.8566 35.6168 92.5423C36.3191 92.1892 35.7912 91.0568 35.0889 91.4111C34.4658 91.7242 33.8439 92.0373 33.2209 92.3516C33.5097 92.5564 33.7997 92.7612 34.0886 92.966C34.4454 88.7356 36.7552 84.3168 35.6236 80.0464C35.4955 79.5626 34.8147 79.2872 34.5247 79.8098C31.7403 84.8371 35.9453 90.8932 39.0458 94.5763C41.2355 97.1776 43.8025 99.4812 46.5699 101.394C48.6214 102.812 50.9992 104.157 53.4925 104.407C54.0329 104.461 54.3308 103.778 53.9944 103.364C49.0655 97.3212 39.8875 99.832 33.7997 102.241C33.9764 102.619 34.152 102.996 34.3276 103.374C34.7943 103.138 35.2611 102.903 35.7278 102.669C35.5522 102.291 35.3766 101.914 35.1999 101.536C32.156 103.63 28.8946 105.349 25.8508 107.444C25.3365 107.797 25.503 108.838 26.2246 108.628C32.2999 106.86 38.7365 104.757 43.3176 100.019C43.6994 99.6248 43.4955 98.9986 42.9653 98.9185C38.3185 98.2205 34.0739 100.349 30.8635 103.746C30.4829 104.148 30.7468 105.017 31.3732 104.837C34.2302 104.016 36.9274 102.711 39.7606 101.811C39.636 101.415 39.5114 101.021 39.3868 100.625C36.5876 101.994 33.6479 102.929 30.6868 103.835C30.0071 104.044 30.0716 104.937 30.7491 105.081C36.9218 106.389 43.6688 106.3 49.6319 104.051C50.1813 103.843 49.9876 103.091 49.5662 102.891C46.5597 101.467 43.8557 101.452 41.0758 103.394C40.5819 103.739 40.9931 104.401 41.4281 104.494C44.5954 105.167 47.4535 104.512 50.3388 103.096C50.997 102.773 50.6118 101.86 49.965 101.912C47.6404 102.095 45.8461 102.765 43.7571 103.815C43.21 104.091 43.3765 104.953 43.9735 105.009C47.108 105.297 50.1734 105.461 53.1108 104.095C53.5186 103.906 53.573 103.253 53.1833 103.008C50.2708 101.171 46.8407 101.171 43.7707 102.61C43.048 102.949 43.5816 104.018 44.2986 103.742C44.9964 103.474 45.905 103.39 46.6232 103.564C47.3663 103.745 47.7764 102.639 47.0196 102.377C43.6699 101.213 39.7855 100.455 36.9025 103.1C36.5434 103.429 36.7077 104.221 37.2548 104.199C40.1684 104.079 42.5496 102.161 44.4765 100.033C44.6645 99.8261 44.7484 99.5565 44.6226 99.2858C44.5467 99.1245 44.4708 98.9621 44.3961 98.8008C44.2511 98.4901 43.8863 98.363 43.5872 98.5089C41.0293 99.7613 38.4125 100.521 35.5952 100.763C34.817 100.832 35.047 102.068 35.8161 102.003Z" fill="#6437FF"/>
</g>
</g>
</g>
<mask id="mask12_1_401" style="mask-type:luminance" maskUnits="userSpaceOnUse" x="46" y="101" width="8" height="7">
<path d="M46.11 101.549H53.65V107.877H46.11V101.549Z" fill="white"/>
</mask>
<g mask="url(#mask12_1_401)">
<mask id="mask13_1_401" style="mask-type:luminance" maskUnits="userSpaceOnUse" x="-20" y="-3" width="113" height="128">
<path d="M92.2676 89.4972L23.5693 124.099L-19.1219 32.5829L49.5753 -2.01752L92.2676 89.4972Z" fill="white"/>
</mask>
<g mask="url(#mask13_1_401)">
<mask id="mask14_1_401" style="mask-type:luminance" maskUnits="userSpaceOnUse" x="-20" y="-3" width="113" height="128">
<path d="M92.2676 89.4972L23.5693 124.099L-19.1219 32.5829L49.5753 -2.01752L92.2676 89.4972Z" fill="white"/>
</mask>
<g mask="url(#mask14_1_401)">
<path d="M46.8655 102.846C49.3215 103.421 51.1306 105.122 52.2611 107.421C52.4582 107.12 52.6553 106.82 52.8524 106.52C50.989 106.484 49.7769 106.046 48.2906 104.875C48.0663 105.223 47.842 105.571 47.6177 105.92C47.9281 106.162 48.3733 106.544 48.7902 106.405C49.0892 106.305 49.3611 106.035 49.2762 105.671C49.0043 104.525 47.9145 103.7 47.3674 102.698C46.9845 101.995 45.8936 102.54 46.2787 103.247C46.7409 104.093 47.8669 104.979 48.0844 105.9C48.2464 105.656 48.4084 105.411 48.5704 105.168C48.7403 105.111 48.362 104.93 48.2917 104.875C47.6676 104.386 46.9981 105.431 47.6177 105.92C49.2648 107.218 50.691 107.733 52.7584 107.774C53.2025 107.782 53.5695 107.318 53.3498 106.872C52.0867 104.304 50.0159 102.303 47.262 101.658C46.5087 101.481 46.1032 102.668 46.8655 102.846Z" fill="#6437FF"/>
</g>
</g>
</g>
<mask id="mask15_1_401" style="mask-type:luminance" maskUnits="userSpaceOnUse" x="38" y="68" width="17" height="27">
<path d="M38.86 68.704H54.52V94.6187H38.86V68.704Z" fill="white"/>
</mask>
<g mask="url(#mask15_1_401)">
<mask id="mask16_1_401" style="mask-type:luminance" maskUnits="userSpaceOnUse" x="-20" y="-3" width="113" height="128">
<path d="M92.2676 89.4972L23.5693 124.099L-19.1219 32.5829L49.5753 -2.01752L92.2676 89.4972Z" fill="white"/>
</mask>
<g mask="url(#mask16_1_401)">
<mask id="mask17_1_401" style="mask-type:luminance" maskUnits="userSpaceOnUse" x="-20" y="-3" width="113" height="128">
<path d="M92.2676 89.4972L23.5693 124.099L-19.1219 32.5829L49.5753 -2.01752L92.2676 89.4972Z" fill="white"/>
</mask>
<g mask="url(#mask17_1_401)">
<path d="M40.0018 94.528C44.1003 92.3457 46.3195 87.728 48.1275 83.5494C50.0533 79.1 51.2438 73.7619 54.2163 69.9035C54.7046 69.2702 53.6964 68.5734 53.2115 69.2031C50.6503 72.5272 49.4472 77.0189 47.9077 80.8986C46.1111 85.4257 43.9157 91.0321 39.4739 93.3969C38.7795 93.7653 39.3063 94.8988 40.0018 94.528Z" fill="#6437FF"/>
</g>
</g>
</g>
<mask id="mask18_1_401" style="mask-type:luminance" maskUnits="userSpaceOnUse" x="40" y="9" width="24" height="83">
<path d="M40.3101 9.944H63.2201V91.0027H40.3101V9.944Z" fill="white"/>
</mask>
<g mask="url(#mask18_1_401)">
<mask id="mask19_1_401" style="mask-type:luminance" maskUnits="userSpaceOnUse" x="-20" y="-3" width="113" height="128">
<path d="M92.2676 89.4972L23.5693 124.099L-19.1218 32.5829L49.5753 -2.01752L92.2676 89.4972Z" fill="white"/>
</mask>
<g mask="url(#mask19_1_401)">
<mask id="mask20_1_401" style="mask-type:luminance" maskUnits="userSpaceOnUse" x="-20" y="-3" width="113" height="128">
<path d="M92.2676 89.4972L23.5693 124.099L-19.1218 32.5829L49.5753 -2.01752L92.2676 89.4972Z" fill="white"/>
</mask>
<g mask="url(#mask20_1_401)">
<path d="M41.8065 90.5989C47.3686 85.036 51.6325 78.0759 55.1771 70.9981C58.8712 63.6202 61.8867 55.6148 62.9425 47.3293C63.9904 39.0968 61.2206 30.7619 57.8041 23.4381C56.5104 20.6649 55.1522 18.4814 52.9001 16.4709C50.6356 14.4475 48.0472 12.6948 45.3658 11.3282C44.4879 10.8798 40.3452 8.71159 40.3429 11.2459C40.3429 12.0522 41.5505 12.1534 41.5505 11.3435C41.5505 11.2541 41.5539 11.2753 41.9787 11.3294C42.442 11.3883 42.9008 11.5849 43.3335 11.7544C44.7235 12.2982 46.0307 13.0762 47.3006 13.8684C49.8721 15.4716 52.4697 17.3667 54.4068 19.7703C55.3889 20.9897 56.0403 22.5741 56.7143 23.9866C57.7316 26.1171 58.5982 28.323 59.3798 30.5571C60.8321 34.7039 62.077 39.2545 62 43.7063C61.8539 52.126 58.725 60.5174 55.2688 68.0131C51.7696 75.6052 47.3074 83.1056 41.5618 89.0934C41.3783 89.2818 41.1936 89.4689 41.0067 89.6537C40.4482 90.214 41.2423 91.1639 41.8065 90.5989Z" fill="#6437FF"/>
</g>
</g>
</g>
<mask id="mask21_1_401" style="mask-type:luminance" maskUnits="userSpaceOnUse" x="67" y="7" width="16" height="16">
<path d="M67.6708 7.26141H82.3532V22.4929H67.6708V7.26141Z" fill="white"/>
</mask>
<g mask="url(#mask21_1_401)">
<path d="M75.0024 7.27789C74.8121 14.5264 74.658 14.6876 67.681 14.8854C74.658 15.0831 74.8121 15.2432 75.0024 22.4929C75.1927 15.2432 75.3479 15.0831 82.3249 14.8854C75.3479 14.6876 75.1927 14.5264 75.0024 7.27789Z" fill="#8C52FF"/>
</g>
<mask id="mask22_1_401" style="mask-type:luminance" maskUnits="userSpaceOnUse" x="66" y="15" width="5" height="6">
<path d="M66.3159 15.9707H70.7599V20.792H66.3159V15.9707Z" fill="white"/>
</mask>
<g mask="url(#mask22_1_401)">
<path d="M68.4275 16.1696C68.3731 18.2601 68.3278 18.3072 66.3159 18.3637C68.3278 18.4213 68.3731 18.4673 68.4275 20.5578C68.483 18.4673 68.5272 18.4213 70.539 18.3637C68.5272 18.3072 68.483 18.2601 68.4275 16.1696Z" fill="#8C52FF"/>
</g>
<mask id="mask23_1_401" style="mask-type:luminance" maskUnits="userSpaceOnUse" x="76" y="6" width="8" height="7">
<path d="M76.7809 6.009H83.2311V12.6984H76.7809V6.009Z" fill="white"/>
</mask>
<g mask="url(#mask23_1_401)">
<path d="M80.0229 12.676C80.1068 9.49906 80.1747 9.42961 83.2311 9.3425C80.1747 9.2554 80.1068 9.18595 80.0229 6.009C79.9402 9.18595 79.8723 9.2554 76.8148 9.3425C79.8723 9.42961 79.9402 9.49906 80.0229 12.676Z" fill="#8C52FF"/>
</g>
</svg>
